<svg id="visual" viewBox="0 0 960 540" width="960" height="540" xmlns="http://www.w3.org/2000/svg" xmlns:xlink="http://www.w3.org/1999/xlink" version="1.1"><rect x="0" y="0" width="960" height="540" fill="#111111"></rect><path d="M0 320L22.8 324C45.7 328 91.3 336 137 332.8C182.7 329.7 228.3 315.3 274 306C319.7 296.7 365.3 292.3 411.2 298.7C457 305 503 322 548.8 324.3C594.7 326.7 640.3 314.3 686 312.2C731.7 310 777.3 318 823 315.2C868.7 312.3 914.3 298.7 937.2 291.8L960 285L960 541L937.2 541C914.3 541 868.7 541 823 541C777.3 541 731.7 541 686 541C640.3 541 594.7 541 548.8 541C503 541 457 541 411.2 541C365.3 541 319.7 541 274 541C228.3 541 182.7 541 137 541C91.3 541 45.7 541 22.8 541L0 541Z" fill="#5d0000"></path><path d="M0 329L22.8 327.5C45.7 326 91.3 323 137 335.2C182.7 347.3 228.3 374.7 274 378.3C319.7 382 365.3 362 411.2 359.5C457 357 503 372 548.8 382.8C594.7 393.7 640.3 400.3 686 401C731.7 401.7 777.3 396.3 823 388.5C868.7 380.7 914.3 370.3 937.2 365.2L960 360L960 541L937.2 541C914.3 541 868.7 541 823 541C777.3 541 731.7 541 686 541C640.3 541 594.7 541 548.8 541C503 541 457 541 411.2 541C365.3 541 319.7 541 274 541C228.3 541 182.7 541 137 541C91.3 541 45.7 541 22.8 541L0 541Z" fill="#770004"></path><path d="M0 417L22.8 419.5C45.7 422 91.3 427 137 425.2C182.7 423.3 228.3 414.7 274 407.7C319.7 400.7 365.3 395.3 411.2 401.7C457 408 503 426 548.8 433.2C594.7 440.3 640.3 436.7 686 436.2C731.7 435.7 777.3 438.3 823 431.3C868.7 424.3 914.3 407.7 937.2 399.3L960 391L960 541L937.2 541C914.3 541 868.7 541 823 541C777.3 541 731.7 541 686 541C640.3 541 594.7 541 548.8 541C503 541 457 541 411.2 541C365.3 541 319.7 541 274 541C228.3 541 182.7 541 137 541C91.3 541 45.7 541 22.8 541L0 541Z" fill="#910006"></path><path d="M0 423L22.8 423.7C45.7 424.3 91.3 425.7 137 431.3C182.7 437 228.3 447 274 444.5C319.7 442 365.3 427 411.2 425.5C457 424 503 436 548.8 436.8C594.7 437.7 640.3 427.3 686 429.3C731.7 431.3 777.3 445.7 823 451.8C868.7 458 914.3 456 937.2 455L960 454L960 541L937.2 541C914.3 541 868.7 541 823 541C777.3 541 731.7 541 686 541C640.3 541 594.7 541 548.8 541C503 541 457 541 411.2 541C365.3 541 319.7 541 274 541C228.3 541 182.7 541 137 541C91.3 541 45.7 541 22.8 541L0 541Z" fill="#ac0004"></path><path d="M0 482L22.8 486.5C45.7 491 91.3 500 137 503.5C182.7 507 228.3 505 274 499.5C319.7 494 365.3 485 411.2 484.5C457 484 503 492 548.8 493.2C594.7 494.3 640.3 488.7 686 488.8C731.7 489 777.3 495 823 491.5C868.7 488 914.3 475 937.2 468.5L960 462L960 541L937.2 541C914.3 541 868.7 541 823 541C777.3 541 731.7 541 686 541C640.3 541 594.7 541 548.8 541C503 541 457 541 411.2 541C365.3 541 319.7 541 274 541C228.3 541 182.7 541 137 541C91.3 541 45.7 541 22.8 541L0 541Z" fill="#c70000"></path></svg>