<svg id="visual" viewBox="0 0 900 600" width="900" height="600" xmlns="http://www.w3.org/2000/svg" xmlns:xlink="http://www.w3.org/1999/xlink" version="1.1"><rect x="0" y="0" width="900" height="600" fill="#111111"></rect><path d="M0 356L21.5 360.3C43 364.7 86 373.3 128.8 369.7C171.7 366 214.3 350 257.2 339.8C300 329.7 343 325.3 385.8 332.5C428.7 339.7 471.3 358.3 514.2 360.8C557 363.3 600 349.7 642.8 347.3C685.7 345 728.3 354 771.2 350.8C814 347.7 857 332.3 878.5 324.7L900 317L900 601L878.5 601C857 601 814 601 771.2 601C728.3 601 685.7 601 642.8 601C600 601 557 601 514.2 601C471.3 601 428.7 601 385.8 601C343 601 300 601 257.2 601C214.3 601 171.7 601 128.8 601C86 601 43 601 21.5 601L0 601Z" fill="#5d0000"></path><path d="M0 366L21.5 364.3C43 362.7 86 359.3 128.8 372.8C171.7 386.3 214.3 416.7 257.2 420.7C300 424.7 343 402.3 385.8 399.5C428.7 396.7 471.3 413.3 514.2 425.3C557 437.3 600 444.7 642.8 445.5C685.7 446.3 728.3 440.7 771.2 432C814 423.3 857 411.7 878.5 405.8L900 400L900 601L878.5 601C857 601 814 601 771.2 601C728.3 601 685.7 601 642.8 601C600 601 557 601 514.2 601C471.3 601 428.7 601 385.8 601C343 601 300 601 257.2 601C214.3 601 171.7 601 128.8 601C86 601 43 601 21.5 601L0 601Z" fill="#770004"></path><path d="M0 463L21.5 465.8C43 468.7 86 474.3 128.8 472.5C171.7 470.7 214.3 461.3 257.2 453.5C300 445.7 343 439.3 385.8 446.2C428.7 453 471.3 473 514.2 481C557 489 600 485 642.8 484.5C685.7 484 728.3 487 771.2 479.2C814 471.3 857 452.7 878.5 443.3L900 434L900 601L878.5 601C857 601 814 601 771.2 601C728.3 601 685.7 601 642.8 601C600 601 557 601 514.2 601C471.3 601 428.7 601 385.8 601C343 601 300 601 257.2 601C214.3 601 171.7 601 128.8 601C86 601 43 601 21.5 601L0 601Z" fill="#910006"></path><path d="M0 471L21.5 471.5C43 472 86 473 128.8 479.2C171.7 485.3 214.3 496.7 257.2 494C300 491.3 343 474.7 385.8 473C428.7 471.3 471.3 484.7 514.2 485.5C557 486.3 600 474.7 642.8 476.8C685.7 479 728.3 495 771.2 502C814 509 857 507 878.5 506L900 505L900 601L878.5 601C857 601 814 601 771.2 601C728.3 601 685.7 601 642.8 601C600 601 557 601 514.2 601C471.3 601 428.7 601 385.8 601C343 601 300 601 257.2 601C214.3 601 171.7 601 128.8 601C86 601 43 601 21.5 601L0 601Z" fill="#ac0004"></path><path d="M0 535L21.5 540C43 545 86 555 128.8 559C171.7 563 214.3 561 257.2 555C300 549 343 539 385.8 538.5C428.7 538 471.3 547 514.2 548.3C557 549.7 600 543.3 642.8 543.5C685.7 543.7 728.3 550.3 771.2 546.5C814 542.7 857 528.3 878.5 521.2L900 514L900 601L878.5 601C857 601 814 601 771.2 601C728.3 601 685.7 601 642.8 601C600 601 557 601 514.2 601C471.3 601 428.7 601 385.8 601C343 601 300 601 257.2 601C214.3 601 171.7 601 128.8 601C86 601 43 601 21.5 601L0 601Z" fill="#c70000"></path></svg>